<mxfile host="app.diagrams.net" agent="Mozilla/5.0 (Windows NT 10.0; Win64; x64; rv:132.0) Gecko/20100101 Firefox/132.0" version="24.8.6">
  <diagram name="Page-1" id="V7viz3ze6376R14pwsg0">
    <mxGraphModel dx="834" dy="1622" grid="1" gridSize="10" guides="1" tooltips="1" connect="1" arrows="1" fold="1" page="1" pageScale="1" pageWidth="827" pageHeight="1169" math="0" shadow="0">
      <root>
        <mxCell id="0" />
        <mxCell id="1" parent="0" />
        <mxCell id="mZ_fZpk5rEdM5yTnIARf-12" style="edgeStyle=orthogonalEdgeStyle;rounded=0;orthogonalLoop=1;jettySize=auto;html=1;exitX=0;exitY=0.5;exitDx=0;exitDy=0;entryX=0;entryY=0.5;entryDx=0;entryDy=0;" edge="1" parent="1" source="mZ_fZpk5rEdM5yTnIARf-5" target="mZ_fZpk5rEdM5yTnIARf-11">
          <mxGeometry relative="1" as="geometry" />
        </mxCell>
        <mxCell id="mZ_fZpk5rEdM5yTnIARf-5" value="&lt;div&gt;serverTick&lt;/div&gt;" style="rounded=1;whiteSpace=wrap;html=1;align=left;spacingLeft=10;" vertex="1" parent="1">
          <mxGeometry x="40" y="40" width="640" height="80" as="geometry" />
        </mxCell>
        <mxCell id="mZ_fZpk5rEdM5yTnIARf-6" value="Level level" style="rounded=0;whiteSpace=wrap;html=1;" vertex="1" parent="1">
          <mxGeometry x="120" y="50" width="80" height="60" as="geometry" />
        </mxCell>
        <mxCell id="mZ_fZpk5rEdM5yTnIARf-7" value="BlockPos pos" style="rounded=0;whiteSpace=wrap;html=1;" vertex="1" parent="1">
          <mxGeometry x="210" y="50" width="100" height="60" as="geometry" />
        </mxCell>
        <mxCell id="mZ_fZpk5rEdM5yTnIARf-8" value="BlockState state" style="rounded=0;whiteSpace=wrap;html=1;" vertex="1" parent="1">
          <mxGeometry x="320" y="50" width="110" height="60" as="geometry" />
        </mxCell>
        <mxCell id="mZ_fZpk5rEdM5yTnIARf-9" value="AbstractFurnaceBlockEntity entity" style="rounded=0;whiteSpace=wrap;html=1;" vertex="1" parent="1">
          <mxGeometry x="440" y="50" width="200" height="60" as="geometry" />
        </mxCell>
        <mxCell id="mZ_fZpk5rEdM5yTnIARf-11" value="" style="rounded=1;whiteSpace=wrap;html=1;" vertex="1" parent="1">
          <mxGeometry x="40" y="160" width="380" height="80" as="geometry" />
        </mxCell>
        <mxCell id="mZ_fZpk5rEdM5yTnIARf-13" value="bool flag = blockEntity.isLit()" style="rounded=0;whiteSpace=wrap;html=1;" vertex="1" parent="1">
          <mxGeometry x="50" y="170" width="170" height="60" as="geometry" />
        </mxCell>
      </root>
    </mxGraphModel>
  </diagram>
</mxfile>
